<mxfile host="app.diagrams.net" modified="2021-11-17T13:00:47.925Z" agent="5.0 (Macintosh; Intel Mac OS X 10_15_7) AppleWebKit/537.36 (KHTML, like Gecko) Chrome/86.0.4240.193 Safari/537.36" etag="Dyna2ON6gkvodzBrKZHZ" version="15.7.4" type="github">
  <diagram id="O9rHen1N-l-tgFm792RK" name="Page-1">
    <mxGraphModel dx="1426" dy="771" grid="1" gridSize="10" guides="1" tooltips="1" connect="1" arrows="1" fold="1" page="1" pageScale="1" pageWidth="827" pageHeight="1169" math="0" shadow="0">
      <root>
        <mxCell id="0" />
        <mxCell id="1" parent="0" />
        <mxCell id="Xph-CF7HNP_c8fdynhVC-5" value="" style="edgeStyle=orthogonalEdgeStyle;rounded=0;orthogonalLoop=1;jettySize=auto;html=1;" edge="1" parent="1" source="Xph-CF7HNP_c8fdynhVC-1" target="Xph-CF7HNP_c8fdynhVC-2">
          <mxGeometry relative="1" as="geometry" />
        </mxCell>
        <mxCell id="Xph-CF7HNP_c8fdynhVC-6" style="edgeStyle=orthogonalEdgeStyle;rounded=0;orthogonalLoop=1;jettySize=auto;html=1;exitX=1;exitY=0.5;exitDx=0;exitDy=0;entryX=0;entryY=0.5;entryDx=0;entryDy=0;" edge="1" parent="1" source="Xph-CF7HNP_c8fdynhVC-1" target="Xph-CF7HNP_c8fdynhVC-3">
          <mxGeometry relative="1" as="geometry" />
        </mxCell>
        <mxCell id="Xph-CF7HNP_c8fdynhVC-1" value="DefaultMQPushConsumerImpl#subscribe" style="rounded=0;whiteSpace=wrap;html=1;fillColor=#ffe6cc;strokeColor=#d79b00;" vertex="1" parent="1">
          <mxGeometry x="150" y="180" width="270" height="60" as="geometry" />
        </mxCell>
        <mxCell id="Xph-CF7HNP_c8fdynhVC-7" style="edgeStyle=orthogonalEdgeStyle;rounded=0;orthogonalLoop=1;jettySize=auto;html=1;exitX=1;exitY=0.5;exitDx=0;exitDy=0;entryX=0;entryY=0.5;entryDx=0;entryDy=0;" edge="1" parent="1" source="Xph-CF7HNP_c8fdynhVC-2" target="Xph-CF7HNP_c8fdynhVC-4">
          <mxGeometry relative="1" as="geometry" />
        </mxCell>
        <mxCell id="Xph-CF7HNP_c8fdynhVC-2" value="DefaultMQPushConsumerImpl#start" style="rounded=0;whiteSpace=wrap;html=1;fillColor=#ffe6cc;strokeColor=#d79b00;" vertex="1" parent="1">
          <mxGeometry x="150" y="260" width="270" height="60" as="geometry" />
        </mxCell>
        <mxCell id="Xph-CF7HNP_c8fdynhVC-3" value="订阅普通Topic" style="rounded=0;whiteSpace=wrap;html=1;fillColor=#dae8fc;strokeColor=#6c8ebf;" vertex="1" parent="1">
          <mxGeometry x="480" y="180" width="190" height="60" as="geometry" />
        </mxCell>
        <mxCell id="Xph-CF7HNP_c8fdynhVC-4" value="订阅重试Topic，格式为&lt;br&gt;&lt;pre&gt;%RETRY% + consumerGroup&lt;/pre&gt;" style="rounded=0;whiteSpace=wrap;html=1;fillColor=#dae8fc;strokeColor=#6c8ebf;" vertex="1" parent="1">
          <mxGeometry x="480" y="260" width="190" height="60" as="geometry" />
        </mxCell>
      </root>
    </mxGraphModel>
  </diagram>
</mxfile>
